# AST/ASF file generated using VICON BodyLanguage
# -----------------------------------------------
:version 1.10
:name VICON
:units
  mass 1.0
  length 0.45
  angle deg
:documentation
   .ast/.asf automatically generated from VICON data using
   VICON BodyBuilder and BodyLanguage model FoxedUp or BRILLIANT.MOD
:root
   order TX TY TZ RX RY RZ
   axis XYZ
   position 0 0 0  
   orientation 0 0 0 
:bonedata
  begin
     id 1 
     name lhipjoint
     direction 0.606768 -0.715223 0.346827 
     length 2.41543 
     axis 0 0 0  XYZ
  end
  begin
     id 2 
     name lfemur
     direction 0.34202 -0.939693 0  
     length 7.2778  
     axis 0 0 20  XYZ
    dof rx ry rz
    limits (-160.0 20.0)
           (-70.0 70.0)
           (-60.0 70.0)
  end
  begin
     id 3 
     name ltibia
     direction 0.34202 -0.939693 0   
     length 7.61811   
     axis 0 0 20   XYZ
    dof rx
    limits (-10.0 170.0)
  end
  begin
     id 4 
     name lfoot
     direction 0.0823924 -0.226371 0.97055   
     length 2.33618   
     axis -90 7.62852e-016 20   XYZ
    dof rx rz
    limits (-45.0 90.0)
           (-70.0 20.0)
  end
  begin
     id 5 
     name ltoes
     direction 1.53554e-011 -4.21934e-011 1   
     length 1.17015   
     axis -90 7.62852e-016 20   XYZ
    dof rx
    limits (-90.0 20.0)
  end
  begin
     id 6 
     name rhipjoint
     direction -0.6077 -0.714582 0.346516   
     length 2.4176  
     axis 0 0 0  XYZ 
  end
  begin
     id 7 
     name rfemur
     direction -0.34202 -0.939693 0   
     length 7.28127   
     axis 0 0 -20   XYZ
    dof rx ry rz
    limits (-160.0 20.0)
           (-70.0 70.0)
           (-70.0 60.0)
  end
  begin
     id 8 
     name rtibia
     direction -0.34202 -0.939693 0   
     length 7.77648   
     axis 0 0 -20   XYZ
    dof rx
    limits (-10.0 170.0)
 end
 begin
     id 9 
     name rfoot
     direction -0.0809463 -0.222398 0.97159   
     length 2.37533  
     axis -90 -7.62852e-016 -20   XYZ
    dof rx rz
    limits (-45.0 90.0)
           (-20.0 70.0)
  end
  begin
     id 10 
     name rtoes
     direction -1.53568e-011 -4.21714e-011 1   
     length 1.18972   
     axis -90 -7.62852e-016 -20   XYZ
    dof rx
    limits (-90.0 20.0)
  end
  begin
     id 11 
     name lowerback
     direction 0.010968 0.991932 -0.126297   
     length 2.21698   
     axis 0 0 0   XYZ
    dof rx ry rz
    limits (-20.0 45.0)
           (-30.0 30.0)
           (-30.0 30.0)
  end
  begin
     id 12 
     name upperback
     direction 0.0167007 0.997503 -0.0686276   
     length 2.22371   
     axis 0 0 0   XYZ
    dof rx ry rz
    limits (-20.0 45.0)
           (-30.0 30.0)
           (-30.0 30.0)
  end
  begin
     id 13 
     name thorax
     direction 0.0111721 0.999885 -0.0102878   
     length 2.25242   
     axis 0 0 0   XYZ
    dof rx ry rz
    limits (-20.0 45.0)
           (-30.0 30.0)
           (-30.0 30.0)
  end
  begin
     id 14 
     name lowerneck
     direction -0.0120265 0.990428 0.137508   
     length 1.57674   
     axis 0 0 0   XYZ
    dof rx ry rz
    limits (-20.0 45.0)
           (-30.0 30.0)
           (-30.0 30.0)
  end
  begin
     id 15 
     name upperneck
     direction 0.0175669 0.998907 0.0433089   
     length 1.5618   
     axis 0 0 0   XYZ
    dof rx ry rz
    limits (-20.0 45.0)
           (-30.0 30.0)
           (-30.0 30.0)
  end
  begin
     id 16
     name head
     direction 0.00754609 0.99997 0.00185367  
     length 1.60579  
     axis 0 0 0   XYZ
    dof rx ry rz
    limits (-20.0 45.0)
           (-30.0 30.0)
           (-30.0 30.0)
  end
  begin
     id 17 
     name lclavicle
     direction 0.885866 0.429166 -0.176231  
     length 3.44967  
     axis 0 0 0   XYZ
    dof ry rz
    limits (-20.0 10.0)
           (0.0 20.0)
  end
  begin
     id 18 
     name lhumerus
     direction 1 -4.48973e-011 -1.90255e-027   
     length 5.20607   
     axis 180 -30 -90   XYZ
    dof rx ry rz
    limits (-60.0 90.0)
           (-90.0 90.0)
           (-90.0 90.0)
  end
  begin
     id 19
     name lradius
     direction 1 -4.48956e-011 9.87925e-027   
     length 3.39961   
     axis 180 -30 -90   XYZ
    dof rx
    limits (-10.0 170.0)
  end
  begin
     id 20
     name lwrist
     direction 1 -4.48985e-011 1.73247e-026   
     length 1.6998   
     axis -9.60847e-015 90 90   XYZ
    dof ry
    limits (-180.0 0.0)
 end
  begin
     id 21 
     name lhand
     direction 1 -4.48798e-011 3.46119e-026   
     length 0.519693   
     axis -2.21073e-014 90 90   XYZ
    dof rx rz
    limits (-90.0 90.0)
           (-45.0 45.0)
  end
  begin
     id 22 
     name lfingers
     direction 1 -4.48938e-011 6.92797e-026   
     length 0.41899   
     axis -4.42155e-014 90 90   XYZ
    dof rx
    limits (0.0 90.0)
  end
  begin
     id 23
     name lthumb
     direction 0.707107 -6.34952e-011 0.707107   
     length 0.601588   
     axis -90 45 6.0103e-014   XYZ
    dof rx rz
    limits (-45.0 45.0)
           (-45.0 45.0)
  end
  begin
     id 24 
     name rclavicle
     direction -0.866736 0.456792 -0.200276   
     length 3.45032  
     axis 0 0 0   XYZ 
    dof ry rz
    limits (-10.0 20.0)
           (-20.0 0.0)
  end
  begin
     id 25 
     name rhumerus
     direction -1 -4.4897e-011 8.65094e-028  
     length 5.32214   
     axis 180 30 90   XYZ
    dof rx ry rz
    limits (-90.0 60.0)
           (-90.0 90.0)
           (-90.0 90.0)
  end
  begin
     id 26 
     name rradius
     direction -1 -4.48987e-011 1.08427e-026   
     length 3.51208   
     axis 180 30 90   XYZ
    dof rx
    limits (-10.0 170.0)
  end
  begin
     id 27 
     name rwrist
     direction -1 -4.48961e-011 1.73222e-026   
     length 1.75604   
     axis -9.60847e-015 -90 -90   XYZ
    dof ry
    limits (-180.0 0.0)
  end
  begin
     id 28
     name rhand
     direction -1 -4.48895e-011 3.46314e-026   
     length 0.586681   
     axis -2.21073e-014 -90 -90   XYZ
    dof rx rz
    limits (-90.0 90.0)
           (-45.0 45.0)
  end
  begin
     id 29
     name rfingers
     direction -1 -4.48968e-011 6.92916e-026   
     length 0.472997   
     axis -4.42155e-014 -90 -90   XYZ
    dof rx
    limits (0.0 90.0)
  end
  begin
     id 30
     name rthumb
     direction -0.707107 -6.34848e-011 0.707107   
     length 0.679133   
     axis -90 -45 -6.0103e-014   XYZ
    dof rx rz
    limits (-45.0 45.0)
           (-45.0 45.0)
  end
:hierarchy
  begin
    root lhipjoint rhipjoint lowerback
    lhipjoint lfemur
    lfemur ltibia
    ltibia lfoot
    lfoot ltoes
    rhipjoint rfemur
    rfemur rtibia
    rtibia rfoot
    rfoot rtoes
    lowerback upperback
    upperback thorax
    thorax lowerneck lclavicle rclavicle
    lowerneck upperneck
    upperneck head
    lclavicle lhumerus
    lhumerus lradius
    lradius lwrist
    lwrist lhand lthumb
    lhand lfingers
    rclavicle rhumerus
    rhumerus rradius
    rradius rwrist
    rwrist rhand rthumb
    rhand rfingers
  end

#!OML:ASF H:\Dans Jumps\Project 1\Capture day 1\Session 1\subject.ASF
:FULLY-SPECIFIED
:DEGREES
1
root 0.577545 17.6555 -14.0501 6.70625 -1.51174 -0.992475
lowerback -4.73171 -0.214498 -0.243366
upperback 3.14777 -0.347109 1.41667
thorax 5.93637 -0.213541 1.57622
lowerneck -12.3468 0.592007 -2.05083
upperneck 36.5079 1.27414 0.489403
head 14.6476 0.323275 0.766307
rclavicle 2.48481e-016 1.0138e-014
rhumerus -22.1299 -10.4215 -84.4322
rradius 23.9169
rwrist 33.2382
rhand -19.6428 -26.9242
rfingers 7.12502
rthumb 6.68467 -56.7987
lclavicle 2.48481e-016 1.0138e-014
lhumerus -19.9771 0.802261 85.8569
lradius 15.2462
lwrist -5.25621
lhand -24.0543 -2.08039
lfingers 7.12502
lthumb 2.42495 27.8856
rfemur -11.7222 -2.86332 18.9218
rtibia 18.1545
rfoot -12.132 -2.39716
rtoes 12.7436
lfemur -8.22313 6.16328 -17.8758
ltibia 13.2719
lfoot -8.956 6.6405
ltoes 1.15016
2
root 0.578063 17.6552 -14.0498 6.68759 -1.47703 -1.01114
lowerback -4.71663 -0.213999 -0.206803
upperback 3.15837 -0.349003 1.41385
thorax 5.93866 -0.212972 1.5526
lowerneck -12.3946 0.580394 -2.01074
upperneck 36.5334 1.26171 0.450148
head 14.6717 0.317829 0.741635
rclavicle 1.14301e-015 -5.96354e-016
rhumerus -22.1601 -10.4459 -84.3889
rradius 23.9501
rwrist 33.2695
rhand -19.6395 -26.9098
rfingers 7.12502
rthumb 6.6878 -56.7842
lclavicle 1.14301e-015 -5.96354e-016
lhumerus -20.0552 0.572673 86.0168
lradius 15.373
lwrist -4.89087
lhand -23.9048 -1.76542
lfingers 7.12502
lthumb 2.56934 28.1989
rfemur -11.6856 -2.87164 18.9406
rtibia 18.1389
rfoot -12.1293 -2.42438
rtoes 12.7351
lfemur -8.21227 6.15499 -17.8536
ltibia 13.2871
lfoot -8.96583 6.62534
ltoes 1.09684
3
root 0.578244 17.6552 -14.0503 6.68883 -1.42799 -1.00332
lowerback -4.7229 -0.229311 -0.219425
upperback 3.16847 -0.369111 1.42119
thorax 5.95366 -0.223702 1.5654
lowerneck -12.3802 0.573334 -2.0447
upperneck 36.4832 1.25707 0.458384
head 14.6444 0.312985 0.749799
rclavicle 2.98177e-016 8.15017e-015
rhumerus -22.1789 -10.4186 -84.3443
rradius 23.9781
rwrist 33.232
rhand -19.6688 -26.9437
rfingers 7.12502
rthumb 6.65956 -56.819
lclavicle 2.98177e-016 8.15017e-015
lhumerus -20.1211 0.344636 86.2057
lradius 15.4972
lwrist -4.52632
lhand -24.0896 -2.13609
lfingers 7.12502
lthumb 2.39081 27.8303
rfemur -11.6804 -2.88135 18.9324
rtibia 18.1375
rfoot -12.1302 -2.46374
rtoes 12.7553
lfemur -8.22432 6.14142 -17.8606
ltibia 13.287
lfoot -8.9684 6.58288
ltoes 1.10079
4
root 0.578824 17.6549 -14.0502 6.67004 -1.38731 -1.00216
lowerback -4.70433 -0.233796 -0.211696
upperback 3.17017 -0.375388 1.41765
thorax 5.94489 -0.226371 1.55677
lowerneck -12.3856 0.56718 -2.03148
upperneck 36.4828 1.2437 0.460435
head 14.6457 0.309455 0.746264
rclavicle 2.33572e-015 -9.54166e-015
rhumerus -22.2062 -10.454 -84.3019
rradius 23.9766
rwrist 33.2216
rhand -19.7224 -26.8462
rfingers 7.12502
rthumb 6.60779 -56.7231
lclavicle 2.33572e-015 -9.54166e-015
lhumerus -20.1736 0.171451 86.3733
lradius 15.5921
lwrist -4.28251
lhand -23.9937 -2.11431
lfingers 7.12502
lthumb 2.48342 27.851
rfemur -11.6503 -2.91083 18.9306
rtibia 18.1335
rfoot -12.1391 -2.48045
rtoes 12.6911
lfemur -8.20952 6.12642 -17.8595
ltibia 13.2897
lfoot -8.97921 6.56118
ltoes 1.10804
5
root 0.579142 17.6548 -14.0504 6.65937 -1.34198 -1.00169
lowerback -4.69263 -0.241434 -0.20825
upperback 3.17295 -0.385834 1.41803
thorax 5.94139 -0.231395 1.55422
lowerneck -12.3843 0.55984 -2.03383
upperneck 36.4688 1.23159 0.465427
head 14.6389 0.304899 0.746733
rclavicle -1.98785e-016 2.18663e-015
rhumerus -22.2347 -10.4662 -84.2595
rradius 23.9889
rwrist 33.2044
rhand -19.7559 -26.8166
rfingers 7.12502
rthumb 6.57546 -56.6945
lclavicle -1.98785e-016 2.18663e-015
lhumerus -20.2292 -0.0457461 86.5537
lradius 15.6873
lwrist -4.00876
lhand -24.0065 -2.21866
lfingers 7.12502
lthumb 2.47104 27.7468
rfemur -11.6315 -2.93006 18.9307
rtibia 18.1345
rfoot -12.1475 -2.5088
rtoes 12.6682
lfemur -8.2033 6.11533 -17.8576
ltibia 13.2865
lfoot -8.98353 6.52844
ltoes 1.10344
6
root 0.579354 17.6548 -14.0506 6.65299 -1.29759 -0.999848
lowerback -4.68413 -0.248606 -0.208152
upperback 3.17376 -0.395387 1.41809
thorax 5.93764 -0.236097 1.5533
lowerneck -12.3804 0.551969 -2.04028
upperneck 36.4533 1.21709 0.477723
head 14.6307 0.299765 0.750541
rclavicle 8.44835e-016 -1.55052e-014
rhumerus -22.2634 -10.4774 -84.2197
rradius 23.9985
rwrist 33.1827
rhand -19.7879 -26.7923
rfingers 7.12502
rthumb 6.54454 -56.6711
lclavicle 8.44835e-016 -1.55052e-014
lhumerus -20.2762 -0.282504 86.7417
lradius 15.7729
lwrist -3.76299
lhand -24.0477 -2.34787
lfingers 7.12502
lthumb 2.43127 27.618
rfemur -11.6167 -2.94965 18.93
rtibia 18.1335
rfoot -12.1539 -2.53626
rtoes 12.6433
lfemur -8.20354 6.10511 -17.8575
ltibia 13.2864
lfoot -8.98962 6.49579
ltoes 1.10089
7
root 0.579423 17.6549 -14.051 6.65053 -1.25828 -0.997396
lowerback -4.68221 -0.253744 -0.209017
upperback 3.175 -0.402092 1.41624
thorax 5.93803 -0.239407 1.55121
lowerneck -12.3815 0.544016 -2.04303
upperneck 36.4411 1.20111 0.49127
head 14.6253 0.294625 0.754041
rclavicle 4.52235e-015 4.37326e-015
rhumerus -22.2883 -10.4935 -84.1851
rradius 24.0048
rwrist 33.1649
rhand -19.8157 -26.7773
rfingers 7.12502
rthumb 6.51778 -56.657
lclavicle 4.52235e-015 4.37326e-015
lhumerus -20.3125 -0.548862 86.9367
lradius 15.8538
lwrist -3.53477
lhand -24.0781 -2.41684
lfingers 7.12502
lthumb 2.40198 27.5494
rfemur -11.6073 -2.96395 18.9292
rtibia 18.1318
rfoot -12.1583 -2.56451
rtoes 12.615
lfemur -8.20819 6.0961 -17.8584
ltibia 13.2872
lfoot -8.99541 6.4662
ltoes 1.10225
8
root 0.579369 17.655 -14.0514 6.65214 -1.22582 -0.994594
lowerback -4.68878 -0.256985 -0.211136
upperback 3.1779 -0.406174 1.41328
thorax 5.94497 -0.241483 1.54893
lowerneck -12.3856 0.535945 -2.04608
upperneck 36.4282 1.18435 0.50689
head 14.6202 0.289374 0.758338
rclavicle 3.97569e-016 2.78299e-015
rhumerus -22.3091 -10.5077 -84.1555
rradius 24.0106
rwrist 33.1528
rhand -19.8339 -26.7782
rfingers 7.12502
rthumb 6.50014 -56.6585
lclavicle 3.97569e-016 2.78299e-015
lhumerus -20.3367 -0.841763 87.1383
lradius 15.9319
lwrist -3.32259
lhand -24.1119 -2.44862
lfingers 7.12502
lthumb 2.36925 27.518
rfemur -11.6035 -2.97393 18.928
rtibia 18.1288
rfoot -12.1603 -2.59028
rtoes 12.5947
lfemur -8.21709 6.08878 -17.8603
ltibia 13.2898
lfoot -9.00122 6.44041
ltoes 1.10671
9
root 0.579184 17.6551 -14.0517 6.65627 -1.20023 -0.993198
lowerback -4.70184 -0.257918 -0.212605
upperback 3.18123 -0.407222 1.40962
thorax 5.95598 -0.242036 1.54584
lowerneck -12.3925 0.52859 -2.04511
upperneck 36.4178 1.16793 0.521614
head 14.617 0.284661 0.761645
rclavicle -3.8763e-015 1.53064e-014
rhumerus -22.3278 -10.5233 -84.1296
rradius 24.0122
rwrist 33.1484
rhand -19.8482 -26.7793
rfingers 7.12502
rthumb 6.48632 -56.66
lclavicle -3.8763e-015 1.53064e-014
lhumerus -20.3538 -1.15253 87.3439
lradius 16.0133
lwrist -3.12679
lhand -24.1355 -2.43179
lfingers 7.12502
lthumb 2.34651 27.535
rfemur -11.6032 -2.98156 18.9285
rtibia 18.1246
rfoot -12.1605 -2.61138
rtoes 12.5729
lfemur -8.22887 6.08369 -17.8608
ltibia 13.2949
lfoot -9.0071 6.41853
ltoes 1.11842
10
root 0.57894 17.6551 -14.0521 6.66012 -1.17826 -0.994384
lowerback -4.71629 -0.257429 -0.210709
upperback 3.18527 -0.406597 1.40536
thorax 5.96845 -0.241619 1.54039
lowerneck -12.4005 0.522397 -2.04023
upperneck 36.4085 1.15297 0.534213
head 14.6146 0.280799 0.763625
rclavicle 5.11871e-015 -1.47101e-014
rhumerus -22.3453 -10.543 -84.1062
rradius 24.0094
rwrist 33.1584
rhand -19.8572 -26.7801
rfingers 7.12502
rthumb 6.47771 -56.661
lclavicle 5.11871e-015 -1.47101e-014
lhumerus -20.365 -1.47997 87.5517
lradius 16.0994
lwrist -2.94228
lhand -24.152 -2.40171
lfingers 7.12502
lthumb 2.33058 27.5653
rfemur -11.6033 -2.98847 18.9317
rtibia 18.12
rfoot -12.1606 -2.62921
rtoes 12.5517
lfemur -8.24025 6.0775 -17.8582
ltibia 13.3011
lfoot -9.01296 6.40165
ltoes 1.13122
11
root 0.578648 17.655 -14.0524 6.66215 -1.16079 -0.997233
lowerback -4.73086 -0.255733 -0.206986
upperback 3.1894 -0.404497 1.40113
thorax 5.98104 -0.2404 1.5341
lowerneck -12.4071 0.517564 -2.03294
upperneck 36.4003 1.14032 0.544064
head 14.6123 0.277876 0.764405
rclavicle 2.23633e-015 -7.95139e-015
rhumerus -22.3632 -10.5624 -84.0845
rradius 24.0028
rwrist 33.1766
rhand -19.8602 -26.781
rfingers 7.12502
rthumb 6.47477 -56.662
lclavicle 2.23633e-015 -7.95139e-015
lhumerus -20.3718 -1.81155 87.7595
lradius 16.1879
lwrist -2.77108
lhand -24.1591 -2.38154
lfingers 7.12502
lthumb 2.32366 27.5856
rfemur -11.6022 -2.99744 18.9364
rtibia 18.1154
rfoot -12.1611 -2.63965
rtoes 12.5357
lfemur -8.24917 6.07352 -17.8539
ltibia 13.3078
lfoot -9.018 6.3883
ltoes 1.14052
12
root 0.578366 17.6549 -14.0525 6.66098 -1.13729 -0.998869
lowerback -4.7352 -0.256479 -0.205353
upperback 3.18949 -0.405477 1.39828
thorax 5.98362 -0.24076 1.53011
lowerneck -12.4096 0.51437 -2.02621
upperneck 36.3942 1.13138 0.550775
head 14.6101 0.276021 0.764558
rclavicle -4.96962e-016 6.36111e-015
rhumerus -22.3867 -10.5807 -84.0599
rradius 23.9891
rwrist 33.2021
rhand -19.8585 -26.7744
rfingers 7.12502
rthumb 6.4764 -56.6554
lclavicle -4.96962e-016 6.36111e-015
lhumerus -20.3804 -2.1444 87.9685
lradius 16.278
lwrist -2.61087
lhand -24.1951 -2.45588
lfingers 7.12502
lthumb 2.28898 27.5116
rfemur -11.5965 -3.01445 18.9401
rtibia 18.1117
rfoot -12.164 -2.64763
rtoes 12.5187
lfemur -8.25426 6.06511 -17.8498
ltibia 13.3133
lfoot -9.02337 6.37435
ltoes 1.14985
13
root 0.578052 17.6547 -14.0527 6.6581 -1.11421 -0.999938
lowerback -4.73893 -0.257898 -0.20269
upperback 3.18964 -0.407375 1.39441
thorax 5.98591 -0.241506 1.5244
lowerneck -12.4088 0.512425 -2.0201
upperneck 36.3871 1.12487 0.556119
head 14.6066 0.274948 0.764603
rclavicle -4.62174e-015 6.95746e-015
rhumerus -22.408 -10.6046 -84.0376
rradius 23.9694
rwrist 33.2368
rhand -19.8503 -26.7697
rfingers 7.12502
rthumb 6.48434 -56.6504
lclavicle -4.62174e-015 6.95746e-015
lhumerus -20.3859 -2.48714 88.1767
lradius 16.3687
lwrist -2.4421
lhand -24.2534 -2.62809
lfingers 7.12502
lthumb 2.23264 27.34
rfemur -11.5894 -3.03555 18.9432
rtibia 18.1091
rfoot -12.1681 -2.6501
rtoes 12.5072
lfemur -8.25651 6.05621 -17.8459
ltibia 13.317
lfoot -9.02699 6.36158
ltoes 1.15563
14
root 0.577715 17.6546 -14.0528 6.65438 -1.09015 -0.99961
lowerback -4.74116 -0.260662 -0.200645
upperback 3.18969 -0.41099 1.39004
thorax 5.98728 -0.24311 1.51834
lowerneck -12.4076 0.511106 -2.01667
upperneck 36.3788 1.12011 0.561272
head 14.6024 0.274231 0.7653
rclavicle -5.2181e-015 3.77691e-015
rhumerus -22.4281 -10.6264 -84.0184
rradius 23.9469
rwrist 33.2731
rhand -19.8408 -26.7585
rfingers 7.12502
rthumb 6.49355 -56.6389
lclavicle -5.2181e-015 3.77691e-015
lhumerus -20.3882 -2.83589 88.3842
lradius 16.4613
lwrist -2.26626
lhand -24.3449 -2.8759
lfingers 7.12502
lthumb 2.14425 27.0931
rfemur -11.5819 -3.06236 18.9449
rtibia 18.1081
rfoot -12.1722 -2.64807
rtoes 12.4984
lfemur -8.25536 6.04527 -17.8432
ltibia 13.3167
lfoot -9.03052 6.34923
ltoes 1.16255
